<?xml version="1.0" encoding="utf-8"?>
<!-- Generator: Adobe Illustrator 27.7.0, SVG Export Plug-In . SVG Version: 6.00 Build 0)  -->
<svg version="1.1" id="레이어_1" xmlns="http://www.w3.org/2000/svg" xmlns:xlink="http://www.w3.org/1999/xlink" x="0px"
	 y="0px" viewBox="0 0 405 157.9" style="enable-background:new 0 0 405 157.9;" xml:space="preserve">
<style type="text/css">
	.st0{fill:#FFFFFF;}
	.st1{fill:#F08300;}
	.st2{fill:#1D2088;stroke:#FFFFFF;stroke-width:0.5;stroke-miterlimit:10;}
</style>
<g>
	<polygon class="st0" points="376.4,94.4 376.4,94.4 376.4,94.4 	"/>
	<polygon class="st0" points="395.6,84.6 395.6,84.6 395.6,84.6 	"/>
	<g>
		<path class="st0" d="M29.2,43.2c10.5,0,19-8.4,19-18.8c0-10.3-8.5-18.7-19-18.7c-10.5,0-19,8.4-19,18.7
			C10.2,34.8,18.7,43.2,29.2,43.2z"/>
		<path class="st1" d="M44.6,24.4c0,8.4-6.9,15.2-15.4,15.2c-8.5,0-15.4-6.8-15.4-15.2c0-8.4,6.9-15.2,15.4-15.2
			C37.7,9.3,44.6,16.1,44.6,24.4L44.6,24.4z"/>
	</g>
	<g>
		<path class="st0" d="M71.3,104.3c8.3,0,15.1-6.7,15.1-14.9c0-8.2-6.8-14.8-15.1-14.8c-8.3,0-15.1,6.6-15.1,14.8
			C56.3,97.6,63,104.3,71.3,104.3z"/>
		<path class="st1" d="M83.5,89.4c0,6.7-5.5,12-12.2,12c-6.7,0-12.2-5.4-12.2-12c0-6.6,5.5-12,12.2-12
			C78.1,77.4,83.5,82.8,83.5,89.4L83.5,89.4z"/>
	</g>
	<polygon class="st2" points="16.3,48.6 42.2,48.6 42.2,146.3 16.3,146.3 16.3,48.6 	"/>
	<path class="st2" d="M125,146.3H99.9V93c0-18.4,2.2-32.4,6.7-41.9c4.2-8.6,10.7-14.4,19.7-17.5c6.9-2.3,17.4-3.6,31.7-3.6h37.7
		v20.2h-40c-10.2,0-17.6,2-22.2,6c-5,4.3-7.9,11.8-8.5,22.5h70.7v19.9H125V146.3L125,146.3z"/>
	<path class="st2" d="M393.1,87.2c-5.9-5.6-15.9-8.4-30-8.4h-32.6c-10.5,0-15.7-4.2-15.7-12.6c0-10.2,6.5-15.3,19.3-15.3h61.2V30
		h-65.1c-14.9,0-25.6,3.2-32.2,9.4c-5.9,5.6-9,14.2-9.2,25.8C288.5,87.7,301.6,99,328.1,99h29.2c7.2,0,12.1,1.2,14.8,3.7
		c1.7,1.6,2.6,4.1,2.6,7.5c0,5.3-1.1,9-3.4,11.1c-2.8,2.7-8,4.1-15.6,4.1h-58L256.4,30h-26.2l-49.6,116.3h26.2l35.6-92.9L260.3,98
		l8,20.5l10.9,27.8h14.5h13.1h52.9c15,0,25.8-3.1,32.3-9.2c5.8-5.4,8.8-13.9,9-25.5C401.2,100.4,398.6,92.2,393.1,87.2L393.1,87.2z"
		/>
</g>
</svg>
